  <svg xmlns="http://www.w3.org/2000/svg" x="0px" y="0px"
                             width="30" height="30"
                             viewBox="0 0 40 40"
                             style=" fill:#000000;">
                            <path fill="#b6dcfe" d="M14.683,19.479c-0.508-0.535-2.183-2.576-2.183-6.265c0-1.517,0.436-2.917,1.297-4.177 c0.167,0.707,0.412,1.415,0.746,2.166l0.714,1.605l0.239-1.741c0.004-0.029,0.396-2.86,1.018-4.697 C20.961,3.19,28.355,1.553,38.5,1.501v0.301C38.098,2.23,36.79,3.6,34.735,5.561c-1.161,0.378-3.849,0.942-6.525,0.942H26.59 l1.339,0.913c0.741,0.505,2.066,1.196,3.203,1.734c-2.707,2.628-5.718,5.249-7.329,6.368 C19.151,18.749,15.567,19.371,14.683,19.479z"></path>
                            <path fill="#4788c7" d="M37.61,2.011c-0.627,0.649-1.691,1.727-3.135,3.108c-0.938,0.286-3.477,0.885-6.265,0.885h-3.242 l2.678,1.826c0.623,0.425,1.64,0.973,2.622,1.458c-2.549,2.44-5.262,4.785-6.751,5.82c-4.209,2.924-7.512,3.664-8.646,3.841 C14.283,18.269,13,16.421,13,13.214c0-1.031,0.217-2.005,0.647-2.914c0.126,0.362,0.272,0.729,0.44,1.106l1.428,3.212l0.477-3.482 c0.004-0.028,0.368-2.659,0.946-4.451C21.13,3.762,28.249,2.154,37.61,2.011 M39,1C26.878,1,19.928,3.256,16.093,6.058 C15.417,7.958,15,11,15,11c-0.538-1.211-0.792-2.208-0.909-3.148C12.449,9.703,12,11.63,12,13.214C12,17.851,14.5,20,14.5,20 s4.032-0.212,9.588-4.071C25.799,14.74,29.083,11.875,32,9c-1.135-0.51-2.896-1.388-3.79-1.997c2.995,0,5.818-0.67,6.79-1.003 c2.584-2.463,4-4,4-4V1L39,1z"></path>
                            <path fill="none" stroke="#4788c7" stroke-miterlimit="10" d="M12.505,31.02c0,0-0.902-13.251,7.725-21.878 C24.235,5.137,30.809,1.5,39,1.5"></path>
                            <path fill="#dff0fe" d="M3.475,38.5c-0.408,0-0.753-0.292-0.82-0.695L1.509,30.93c-0.071-0.425,0.185-0.827,0.595-0.936 c0.992-0.263,4.008-1.062,5.883-2.588l0.245-0.194c0.38-0.299,0.801-0.631,1.066-1.025h7.396c0.264,0.393,0.685,0.723,1.064,1.022 l0.247,0.196c1.867,1.524,4.89,2.325,5.884,2.588c0.41,0.109,0.666,0.511,0.595,0.936l-1.146,6.876 c-0.067,0.402-0.412,0.694-0.82,0.694H3.475z"></path>
                            <path fill="#4788c7" d="M16.446,26.687c0.291,0.353,0.663,0.646,1.005,0.915c0.083,0.065,0.163,0.129,0.24,0.191 c1.951,1.593,5.053,2.414,6.072,2.684c0.16,0.042,0.259,0.201,0.23,0.37l-1.146,6.875C22.82,37.884,22.683,38,22.52,38H3.475 c-0.163,0-0.3-0.116-0.327-0.277l-1.146-6.875c-0.028-0.169,0.071-0.328,0.23-0.37C5,29.744,6.986,28.867,8.304,27.794 c0.076-0.062,0.156-0.125,0.238-0.189c0.343-0.27,0.716-0.563,1.008-0.918H16.446 M16.991,25.687H9.004 c-0.2,0.495-0.848,0.938-1.331,1.331c-1.689,1.375-4.407,2.151-5.696,2.492c-0.661,0.175-1.073,0.826-0.961,1.501l1.146,6.875 C2.269,38.529,2.824,39,3.475,39H22.52c0.651,0,1.206-0.471,1.313-1.112l1.146-6.875c0.113-0.675-0.299-1.326-0.961-1.501 c-1.29-0.342-4.008-1.115-5.696-2.492C17.842,26.626,17.19,26.181,16.991,25.687L16.991,25.687z"></path>
                            <path fill="#dff0fe" d="M8.5,26.5v-2.247c0-0.408,0.355-0.753,0.776-0.753h7.5c0.406,0,0.724,0.331,0.724,0.753V26.5H8.5z"></path>
                            <path fill="#4788c7" d="M16.776,24C16.923,24,17,24.127,17,24.253V26H9v-1.747C9,24.121,9.132,24,9.276,24H16.776 M16.776,23h-7.5C8.586,23,8,23.563,8,24.253V27h10v-2.747C18,23.563,17.467,23,16.776,23L16.776,23z"></path>
                            <path fill="#98ccfd" d="M2.03,31.012l1.118,6.711C3.175,37.884,3.312,38,3.475,38H22.52c0.163,0,0.3-0.116,0.327-0.277 l1.118-6.711H2.03z"></path>
                            <g><path fill="#98ccfd" d="M13.234 26c.075-.628.171-1.297.296-2h-1.009c-.121.703-.215 1.371-.289 2H13.234zM13.129 27h-1c-.218 2.416-.126 4.008-.123 4.054l.998-.068C13.001 30.941 12.91 29.372 13.129 27z"></path></g>
                        </svg>