<svg  class="float-right mt-1"  xmlns="http://www.w3.org/2000/svg" x="0px" y="0px"
                             width="53" height="53"
                             viewBox="0 0 172 172"
                             style=" fill:#000000;">
                        <g transform="translate(-25.8,-25.8) scale(1.3,1.3)"><g fill="none" fill-rule="nonzero" stroke="none" stroke-width="1" stroke-linecap="butt" stroke-linejoin="miter" stroke-miterlimit="10" stroke-dasharray="" stroke-dashoffset="0" font-family="none" font-weight="none" font-size="none" text-anchor="none" style="mix-blend-mode: normal"><path d="M0,172v-172h172v172z" fill="none"></path><g><path d="M150.04248,95.54772c0.516,-1.05952 0.97352,-2.17408 1.36912,-3.34196c4.52876,-13.3644 -2.32028,-29.37416 -16.74076,-33.239c-1.55832,-19.57876 -15.31832,-33.01196 -30.85852,-35.303c-17.78652,-2.623 -34.08008,8.67568 -39.50152,26.6342c-6.53428,-2.31512 -12.90172,-2.03304 -18.9028,1.47404c-2.72276,1.25904 -5.21332,3.11664 -7.4476,5.56076c-3.28004,3.58792 -5.41284,8.11668 -6.28144,12.8914c-1.28656,0.20296 -2.55076,0.40592 -3.74272,0.83248c-6.9488,2.49228 -11.33308,7.62132 -12.53536,15.34756c-0.7482,4.81084 0.76196,9.60964 1.60476,11.54808c3.3282,7.6626 11.04584,12.0056 18.88732,10.85664c0.39044,-0.05676 0.95804,0.11868 1.29344,0.40076c0.41452,12.2464 6.36056,23.07724 15.28048,29.26408c14.31212,9.92784 32.72644,6.86968 44.34332,-6.74412c4.97768,5.0912 10.90136,7.56456 17.86048,6.66672c6.91956,-0.89268 12.29284,-4.71108 16.21272,-10.92028c1.81116,0.48676 3.52772,1.18852 5.30276,1.38288c6.95224,0.76024 12.55084,-2.03648 16.73904,-8.256c0.14276,-0.21328 0.34916,-0.37668 0.52632,-0.56416c0.59856,-1.37256 1.19712,-2.74512 1.79568,-4.11768c0.2666,-2.08292 0.73788,-4.16756 0.76196,-6.24704c0.06708,-5.60032 -2.22224,-10.70528 -5.96668,-14.12636z" fill="#c8ede6"></path><path d="M67.65964,57.48756c0,0 20.10852,0 20.23064,0c4.644,0 8.40736,-3.76508 8.40736,-8.40908c0,-4.0506 -2.86552,-7.43212 -6.68048,-8.22848c0.04472,-0.35432 0.07396,-0.7138 0.07396,-1.08016c0,-4.80912 -3.89924,-8.70836 -8.70836,-8.70836c-2.83972,0 -5.35436,1.36568 -6.94364,3.46924c-0.40592,-5.35436 -5.18924,-9.48408 -10.7844,-8.79952c-4.09188,0.50052 -7.47512,3.6636 -8.22848,7.71592c-0.2408,1.30032 -0.21672,2.56108 0.02408,3.74444c-1.09736,-1.18164 -2.65912,-1.92468 -4.39804,-1.92468c-3.182,0 -5.78092,2.47852 -5.9856,5.60892c-1.4448,-0.31992 -3.01688,-0.29928 -4.67324,0.32336c-3.1648,1.18852 -5.418,4.16756 -5.55044,7.54564c-0.18748,4.79708 3.6464,8.7462 8.4022,8.7462c0.3612,0 1.63056,0 1.92296,0h17.45972" fill="#fdfcef"></path><path d="M87.89028,58.34756h-20.23064c-0.47472,0 -0.86,-0.38528 -0.86,-0.86c0,-0.47472 0.38528,-0.86 0.86,-0.86h20.23064c4.1624,0 7.54908,-3.38668 7.54908,-7.54908c0,-3.55352 -2.52152,-6.66156 -5.99592,-7.3874c-0.4386,-0.09116 -0.73272,-0.50396 -0.67768,-0.94944c0.03956,-0.31992 0.06708,-0.64328 0.06708,-0.9718c0,-4.32924 -3.52084,-7.84836 -7.84664,-7.84836c-2.47336,0 -4.7558,1.14036 -6.25736,3.12696c-0.215,0.28552 -0.58136,0.40764 -0.9288,0.30616c-0.34228,-0.10148 -0.58824,-0.40248 -0.61404,-0.75852c-0.17888,-2.36844 -1.33988,-4.59412 -3.182,-6.10428c-1.86276,-1.52736 -4.22432,-2.20504 -6.6392,-1.90748c-3.72552,0.45752 -6.80432,3.34196 -7.48716,7.01932c-0.21328,1.14724 -0.2064,2.2962 0.02236,3.41592c0.07568,0.3784 -0.10664,0.76024 -0.45064,0.93568c-0.344,0.17888 -0.76196,0.1032 -1.0234,-0.17888c-0.989,-1.06296 -2.32716,-1.64948 -3.7668,-1.64948c-2.69868,0 -4.95016,2.11216 -5.12732,4.80568c-0.0172,0.25112 -0.14104,0.47988 -0.34228,0.62952c-0.20124,0.15308 -0.46096,0.2064 -0.70176,0.15308c-1.44652,-0.3182 -2.81564,-0.22704 -4.18476,0.28724c-2.87068,1.07844 -4.8762,3.79948 -4.99316,6.77336c-0.08084,2.07604 0.66564,4.042 2.10012,5.53496c1.4362,1.49468 3.36948,2.31856 5.44208,2.31856h19.38268c0.47472,0 0.86,0.38528 0.86,0.86c0,0.47472 -0.38528,0.86 -0.86,0.86h-19.38612c-2.54388,0 -4.91576,-1.01136 -6.68048,-2.84488c-1.763,-1.83352 -2.67976,-4.24668 -2.58,-6.794c0.14276,-3.65672 2.5972,-6.99868 6.106,-8.3162c1.376,-0.51772 2.79672,-0.68456 4.24496,-0.51428c0.64844,-3.13384 3.43656,-5.47304 6.7166,-5.47304c1.17648,0 2.32888,0.3096 3.34368,0.8772c0,-0.66392 0.0602,-1.32784 0.18232,-1.99348c0.82044,-4.40664 4.50812,-7.86556 8.9698,-8.41252c2.88788,-0.3526 5.7104,0.45752 7.93952,2.28416c1.72516,1.41556 2.95152,3.35572 3.50536,5.49196c1.74064,-1.57552 3.98868,-2.45272 6.38808,-2.45272c5.27524,0 9.56664,4.29312 9.56664,9.56836c0,0.14276 -0.00344,0.28552 -0.01204,0.42656c3.87688,1.15756 6.61856,4.77472 6.61856,8.88208c0.00172,5.11356 -4.15552,9.26908 -9.26736,9.26908z" fill="#472b29"></path><path d="M62.78688,38.9666c-3.10976,-0.20468 -5.7878,1.9436 -5.97872,4.79708c-0.02408,0.35432 -0.0086,0.70348 0.043,1.04232c-0.60028,-0.67768 -1.4878,-1.13692 -2.50776,-1.204c-1.8662,-0.12212 -3.47784,1.1094 -3.71176,2.7864c-0.33884,-0.09288 -0.69316,-0.1548 -1.05952,-0.17888c-2.72104,-0.17888 -5.06368,1.70108 -5.23224,4.19852" fill="#fdfcef"></path><path d="M44.3416,50.83632c-0.01032,0 -0.02064,0 -0.02924,-0.00172c-0.23736,-0.01548 -0.41624,-0.22016 -0.40076,-0.45752c0.18404,-2.72964 2.73136,-4.79708 5.68976,-4.59928c0.23564,0.01548 0.46956,0.04472 0.70348,0.09116c0.47128,-1.66496 2.16032,-2.8294 4.06952,-2.69524c0.731,0.04644 1.41556,0.27348 2.00208,0.65704c0,-0.03268 0.00344,-0.06364 0.00516,-0.09632c0.2064,-3.0874 3.07364,-5.4352 6.43624,-5.19612c0.23736,0.01548 0.41624,0.22016 0.40076,0.45752c-0.01548,0.23736 -0.21328,0.4386 -0.45752,0.39904c-2.83972,-0.1806 -5.34576,1.78364 -5.5212,4.39804c-0.02064,0.31648 -0.00688,0.6364 0.03956,0.95116c0.02924,0.18748 -0.07052,0.37324 -0.24252,0.45408c-0.172,0.08084 -0.37668,0.03784 -0.50396,-0.10492c-0.55556,-0.6278 -1.3416,-1.00448 -2.21364,-1.06124c-1.63572,-0.05848 -3.053,0.95632 -3.25768,2.41488c-0.0172,0.12212 -0.086,0.2322 -0.1892,0.301c-0.1032,0.06708 -0.22876,0.08772 -0.35088,0.05504c-0.32164,-0.08772 -0.64844,-0.14276 -0.97524,-0.16684c-2.4768,-0.15824 -4.62164,1.54112 -4.773,3.79948c-0.01892,0.22704 -0.20812,0.40076 -0.43172,0.40076z" fill="#472b29"></path><path d="M91.29588,41.83556c-2.92228,-1.37772 -6.30208,-0.40248 -7.54908,2.17924c-0.1548,0.31992 -0.27004,0.65188 -0.34572,0.98728" fill="#fdfcef"></path><path d="M83.40108,45.43208c-0.03096,0 -0.06364,-0.00344 -0.09632,-0.01032c-0.23048,-0.05332 -0.37668,-0.2838 -0.32336,-0.516c0.08428,-0.37324 0.21156,-0.73616 0.37668,-1.07844c1.34676,-2.78812 4.99144,-3.85108 8.12012,-2.3822c0.215,0.1032 0.30788,0.35776 0.2064,0.57276c-0.10148,0.21672 -0.35948,0.30272 -0.57276,0.2064c-2.70728,-1.27968 -5.83768,-0.39044 -6.97976,1.97628c-0.1376,0.2838 -0.24252,0.5848 -0.31304,0.89612c-0.04472,0.20124 -0.22188,0.3354 -0.41796,0.3354z" fill="#472b29"></path><path d="M25.62628,98.04h-17.2516c-0.47472,0 -0.86,-0.38528 -0.86,-0.86c0,-0.47472 0.38528,-0.86 0.86,-0.86h17.2516c0.47472,0 0.86,0.38528 0.86,0.86c0,0.47472 -0.38356,0.86 -0.86,0.86zM31.4416,97.18c0,-0.47472 -0.38528,-0.86 -0.86,-0.86h-2.48712c-0.47472,0 -0.86,0.38528 -0.86,0.86c0,0.47472 0.38528,0.86 0.86,0.86h2.48712c0.47644,0 0.86,-0.38528 0.86,-0.86zM38.4162,97.18c0,-0.47472 -0.38528,-0.86 -0.86,-0.86h-4.37912c-0.47472,0 -0.86,0.38528 -0.86,0.86c0,0.47472 0.38528,0.86 0.86,0.86h4.37912c0.47644,0 0.86,-0.38528 0.86,-0.86zM38.4162,100.62c0,-0.47472 -0.38528,-0.86 -0.86,-0.86h-16.53952c-0.47472,0 -0.86,0.38528 -0.86,0.86c0,0.47472 0.38528,0.86 0.86,0.86h16.53952c0.47644,0 0.86,-0.38528 0.86,-0.86zM18.89764,100.62c0,-0.47472 -0.38528,-0.86 -0.86,-0.86h-0.9976c-0.47472,0 -0.86,0.38528 -0.86,0.86c0,0.47472 0.38528,0.86 0.86,0.86h0.9976c0.47472,0 0.86,-0.38528 0.86,-0.86zM14.81092,100.62c0,-0.47472 -0.38528,-0.86 -0.86,-0.86h-2.50604c-0.47472,0 -0.86,0.38528 -0.86,0.86c0,0.47472 0.38528,0.86 0.86,0.86h2.50604c0.47472,0 0.86,-0.38528 0.86,-0.86zM30.52312,93.74c0,-0.47472 -0.38528,-0.86 -0.86,-0.86h-8.64644c-0.47472,0 -0.86,0.38528 -0.86,0.86c0,0.47472 0.38528,0.86 0.86,0.86h8.64644c0.47644,0 0.86,-0.38528 0.86,-0.86zM30.52312,90.3c0,-0.47472 -0.38528,-0.86 -0.86,-0.86h-2.16204c-0.47472,0 -0.86,0.38528 -0.86,0.86c0,0.47472 0.38528,0.86 0.86,0.86h2.16204c0.47644,0 0.86,-0.38528 0.86,-0.86zM24.90044,104.06c0,-0.47472 -0.38528,-0.86 -0.86,-0.86h-3.02376c-0.47472,0 -0.86,0.38528 -0.86,0.86c0,0.47472 0.38528,0.86 0.86,0.86h3.02376c0.47644,0 0.86,-0.38528 0.86,-0.86z" fill="#ffffff"></path><path d="M125.11968,44.72h-17.2516c-0.47472,0 -0.86,-0.38528 -0.86,-0.86c0,-0.47472 0.38528,-0.86 0.86,-0.86h17.25332c0.47472,0 0.86,0.38528 0.86,0.86c0,0.47472 -0.38528,0.86 -0.86172,0.86zM130.935,43.86c0,-0.47472 -0.38528,-0.86 -0.86,-0.86h-2.48712c-0.47472,0 -0.86,0.38528 -0.86,0.86c0,0.47472 0.38528,0.86 0.86,0.86h2.48712c0.47644,0 0.86,-0.38528 0.86,-0.86zM137.9096,43.86c0,-0.47472 -0.38528,-0.86 -0.86,-0.86h-4.37912c-0.47472,0 -0.86,0.38528 -0.86,0.86c0,0.47472 0.38528,0.86 0.86,0.86h4.37912c0.47472,0 0.86,-0.38528 0.86,-0.86zM134.42488,36.98c0,-0.47472 -0.38528,-0.86 -0.86,-0.86h-16.53952c-0.47472,0 -0.86,0.38528 -0.86,0.86c0,0.47472 0.38528,0.86 0.86,0.86h16.53952c0.47472,0 0.86,-0.38528 0.86,-0.86zM114.90632,36.98c0,-0.47472 -0.38528,-0.86 -0.86,-0.86h-0.9976c-0.47472,0 -0.86,0.38528 -0.86,0.86c0,0.47472 0.38528,0.86 0.86,0.86h0.9976c0.47644,0 0.86,-0.38528 0.86,-0.86zM110.81788,36.98c0,-0.47472 -0.38528,-0.86 -0.86,-0.86h-2.50432c-0.47472,0 -0.86,0.38528 -0.86,0.86c0,0.47472 0.38528,0.86 0.86,0.86h2.50432c0.47644,0 0.86,-0.38528 0.86,-0.86zM130.01652,40.42c0,-0.47472 -0.38528,-0.86 -0.86,-0.86h-8.64644c-0.47472,0 -0.86,0.38528 -0.86,0.86c0,0.47472 0.38528,0.86 0.86,0.86h8.64644c0.47472,0 0.86,-0.38528 0.86,-0.86zM130.01652,36.98c0,-0.47472 -0.38528,-0.86 -0.86,-0.86h-2.16204c-0.47472,0 -0.86,0.38528 -0.86,0.86c0,0.47472 0.38528,0.86 0.86,0.86h2.16204c0.47472,0 0.86,-0.38528 0.86,-0.86zM118.86576,40.42c0,-0.47472 -0.38528,-0.86 -0.86,-0.86h-3.02376c-0.47472,0 -0.86,0.38528 -0.86,0.86c0,0.47472 0.38528,0.86 0.86,0.86h3.02376c0.47644,0 0.86,-0.38528 0.86,-0.86z" fill="#ffffff"></path><path d="M46.5604,98.88624l-0.20296,-0.4644c-0.82388,-2.40112 -0.65532,-4.71624 0.55212,-6.98664l5.92884,-8.60344l-2.7606,-1.71656c-0.17716,-0.10836 -0.18748,-0.2666 -0.1634,-0.38184c0.02236,-0.1118 0.09288,-0.25284 0.29928,-0.2838c0,0 14.94508,-2.29964 14.95024,-2.29964c0.19608,0 0.3268,0.09288 0.3784,0.22876l5.85144,15.22372c0.02924,0.0774 0.05848,0.19436 -0.02924,0.32336c-0.07224,0.10492 -0.19608,0.17544 -0.3096,0.17544v0c-0.06192,0 -0.12384,-0.02064 -0.19092,-0.0602l-2.77608,-1.72516l-8.8322,13.0892l-8.62752,1.0148z" fill="#00a5a5"></path><path d="M65.3342,79.3436h0.0086h-0.0086M64.6634,79.4468l4.70936,12.24812l-1.63056,-1.0148l-1.2986,1.92296l-7.87416,11.67192l-7.267,0.85484l-3.63952,-6.73552l-0.09116,-0.2064l-0.07224,-0.15996c-0.69488,-2.08292 -0.559,-4.01964 0.4128,-5.91336l5.203,-7.56112l1.42932,-2.07776l-1.9006,-1.18164l12.01936,-1.84728M65.20692,76.9442c-0.07912,0 -0.15996,0.00516 -0.23908,0.01892l-14.93476,2.29792c-1.43792,0.22016 -1.82492,2.11044 -0.58824,2.87928l1.68904,1.0492l-5.28384,7.68152c-1.39148,2.61612 -1.53768,5.2976 -0.59168,8.03756c0.08084,0.18232 0.1634,0.36808 0.24596,0.5504l4.45824,8.25428l9.98804,-1.17476l8.49164,-12.58696l1.79052,1.11284c0.27004,0.16856 0.55384,0.24252 0.82732,0.24252c1.01308,0 1.88684,-1.03028 1.462,-2.13624l-5.85144,-15.222c-0.23736,-0.61232 -0.82388,-1.00448 -1.46372,-1.00448z" fill="#472b29"></path><path d="M64.24544,124.3302c-2.6144,0 -4.99832,-1.45168 -6.22296,-3.78572l-9.37744,-17.8794c2.18612,1.2728 4.6096,2.13796 7.98252,2.13796h24.381c0.19092,0 0.34744,0.1634 0.34744,0.36292v18.80132c0,0.19952 -0.15652,0.36292 -0.34744,0.36292z" fill="#00a5a5"></path><path d="M51.33512,105.20552c1.5308,0.50224 3.25424,0.80324 5.29072,0.80324h23.52616v17.11744h-15.90656c-2.16548,0 -4.14176,-1.204 -5.15828,-3.14072l-7.75204,-14.77996M45.30996,98.9l11.6444,22.20348c1.42932,2.72448 4.23464,4.43072 7.29108,4.43072h16.76312c0.85656,0 1.55144,-0.70176 1.55144,-1.56692v-18.7996c0,-0.86516 -0.69488,-1.56692 -1.55144,-1.56692h-24.381c-5.11012,0 -7.89308,-2.16032 -11.3176,-4.70076z" fill="#472b29"></path><path d="M97.56012,127.796c-0.10664,0 -0.19092,-0.043 -0.2666,-0.1376l-9.43936,-11.65644c-0.10664,-0.13072 -0.10836,-0.32336 -0.00172,-0.4558l10.38708,-12.95848c0.0774,-0.0946 0.1634,-0.1376 0.27004,-0.1376c0.00344,0 0.37152,0.00344 0.37668,0.3612l0.04816,3.88204l15.2478,-0.08084l5.19268,6.8972l-4.45824,7.31344l-0.23736,0.32336c-1.72172,2.00724 -3.80636,3.02892 -6.37604,3.12868l-10.33032,0.01032l-0.03612,3.14932c-0.00344,0.35776 -0.37152,0.3612 -0.37668,0.3612z" fill="#00a5a5"></path><path d="M99.17864,103.34104h0.0086h-0.0086M97.71148,105.17112l0.00516,0.34228l0.03096,2.38908l2.3908,-0.01204l13.44696,-0.07224l4.33784,5.76372l-3.98352,6.536l-0.2236,0.31132l-0.01032,0.01376c-1.46888,1.67356 -3.23704,2.53356 -5.40252,2.62816l-9.13664,0.0086l-2.37876,0.00172l-0.02408,2.00896l-7.54564,-9.31724l8.49336,-10.60208M98.50784,101.24436c-0.43688,0 -0.88064,0.18232 -1.20744,0.58996l-10.3888,12.95848c-0.46096,0.57448 -0.45924,1.3932 0.00516,1.96596l9.44108,11.65816c0.3268,0.40248 0.76884,0.58308 1.204,0.58308c0.79636,0 1.57036,-0.60372 1.58068,-1.55144l0.02236,-1.96424l9.18652,-0.0086c2.96012,-0.11524 5.3492,-1.3416 7.2412,-3.53976c0.11696,-0.16168 0.23564,-0.3268 0.3526,-0.4902l4.88308,-8.01004l-6.04752,-8.03584l-14.65612,0.07912l-0.0344,-2.68836c-0.01376,-0.94428 -0.78776,-1.54628 -1.5824,-1.54628z" fill="#472b29"></path><path d="M117.76496,116.32876c-0.0086,-2.5542 -0.4902,-5.11012 -2.2102,-8.0582l-12.39948,-21.25748c-0.10148,-0.17372 -0.04128,-0.3956 0.13072,-0.49708l16.23852,-9.47204c0.05676,-0.0344 0.11696,-0.04988 0.17888,-0.04988c0.04988,0 0.21844,0.01376 0.31476,0.1806l8.52776,14.61484c1.33128,2.28588 1.29344,5.10152 -0.1032,7.34612z" fill="#00a5a5"></path><path d="M120.12996,78.08456h0.0086h-0.0086M119.40412,78.50768l8.1012,13.889c1.10768,1.89888 1.075,4.23808 -0.08428,6.10428l-8.82532,14.2072c-0.34228,-1.59616 -0.95976,-3.2594 -2.00036,-5.04648l-11.97636,-20.53164l14.78512,-8.62236M119.70512,75.79008c-0.26832,0 -0.54008,0.0688 -0.78776,0.21328l-16.24024,9.47204c-0.7482,0.43516 -0.99932,1.39492 -0.56416,2.14312l12.39948,21.25748c2.59892,4.4548 2.14828,7.96876 1.69592,12.23608l13.25604,-21.34004c1.62712,-2.61956 1.67356,-5.9254 0.11868,-8.58968l-8.52604,-14.61656c-0.28724,-0.49708 -0.81184,-0.77572 -1.35192,-0.77572z" fill="#472b29"></path><g><path d="M92.1232,73.73296c-0.20984,-0.02752 -0.28552,-0.18404 -0.31304,-0.31304c-0.02064,-0.0946 -0.04128,-0.32336 0.18232,-0.45924l2.80876,-1.68388l-7.23948,-13.47792l3.15792,-8.37124l8.55528,-0.06536l0.51256,0.03784c2.48884,0.40764 4.4548,1.68216 5.89788,3.88032l4.6698,8.68256l2.80016,-1.68044c0.05848,-0.03612 0.11352,-0.05332 0.16856,-0.05332c0.10492,0 0.21672,0.06536 0.29068,0.16856c0.08256,0.11352 0.09976,0.24768 0.04816,0.39388l-4.9708,14.70256c-0.05332,0.15824 -0.18748,0.26316 -0.3354,0.26316z" fill="#00a5a5"></path><path d="M99.18896,50.568l0.2064,0.01548l0.18748,0.01204c2.1672,0.37496 3.8184,1.44308 5.0396,3.26456l4.07296,7.56284l1.1954,2.2188l1.9264,-1.1524l-4.05232,11.98668l-13.19928,-1.6512l1.8404,-1.10252l-1.08704,-2.02444l-6.43796,-11.98324l2.6746,-7.08812l7.63336,-0.05848M113.77284,61.318h0.0086h-0.0086M99.26464,48.16l-9.38088,0.07224l-3.64296,9.6578l6.95568,12.94816l-1.82148,1.09048c-1.2986,0.77916 -0.89268,2.8122 0.59856,2.99796l16.18864,2.02444c0.06364,0.00688 0.12728,0.01204 0.1892,0.01204c0.65876,0 1.25732,-0.42828 1.4792,-1.0836l4.9708,-14.70084c0.38012,-1.12316 -0.47988,-2.15 -1.47748,-2.15c-0.25972,0 -0.52976,0.07052 -0.78948,0.22532l-1.72,1.03028l-4.12628,-7.66088c-1.65808,-2.5284 -3.95772,-3.956 -6.82324,-4.41868c-0.1978,-0.01548 -0.40076,-0.03096 -0.60028,-0.04472z" fill="#472b29"></path></g><g><path d="M77.42236,78.3546c-0.05332,0 -0.10664,-0.01376 -0.15652,-0.03956l-16.60488,-9.07644c-0.19092,-0.10492 -0.26316,-0.36808 -0.15652,-0.57448l7.9292,-15.394c1.24012,-2.408 3.64812,-3.9044 6.28316,-3.9044l20.35104,0.01892c-2.21364,1.4018 -4.16928,3.21812 -5.79468,6.37432l-11.53604,22.39268c-0.06536,0.12556 -0.18404,0.20296 -0.31476,0.20296z" fill="#00a5a5"></path><path d="M74.72368,50.568l16.85256,0.0172c-1.23152,1.1868 -2.36844,2.66772 -3.37464,4.62164l-11.13872,21.62212l-15.14804,-8.27836l7.58864,-14.7318c1.03372,-2.00552 3.03064,-3.2508 5.21332,-3.2508h0.00688M74.71852,48.16c-3.08052,0 -5.90992,1.75268 -7.35472,4.55628l-7.93092,15.39572c-0.40592,0.78776 -0.11524,1.76472 0.65016,2.18268l16.6066,9.07644c0.23392,0.12728 0.48504,0.18748 0.73272,0.18748c0.56072,0 1.10424,-0.31132 1.3846,-0.85828l11.53432,-22.39096c2.4166,-4.69216 5.6416,-6.20404 9.50644,-8.12528l-25.1206,-0.02408c-0.00344,0 -0.00688,0 -0.0086,0z" fill="#472b29"></path></g><g fill="#472b29"><path d="M122.07872,109.3834c-0.00172,0 -0.00516,0 -0.00688,0c-0.23908,-0.00344 -0.42656,-0.19952 -0.42312,-0.43688c0.04128,-2.54732 -1.38976,-5.14452 -2.43208,-7.04168l-3.33508,-6.05268c-0.11352,-0.20812 -0.03784,-0.46956 0.16856,-0.5848c0.20984,-0.11524 0.46956,-0.03956 0.5848,0.16856l3.33508,6.0544c1.0922,1.97972 2.58516,4.69388 2.54044,7.46996c-0.00516,0.23392 -0.1978,0.42312 -0.43172,0.42312z"></path></g><g fill="#472b29"><path d="M114.88052,93.6024c-0.15136,0 -0.29928,-0.08084 -0.37668,-0.2236l-4.01448,-7.29452c-0.11352,-0.2064 -0.03784,-0.46784 0.17028,-0.58308c0.2064,-0.11696 0.46956,-0.03956 0.58308,0.17028l4.01448,7.29452c0.11352,0.2064 0.03784,0.46784 -0.17028,0.58308c-0.06536,0.03612 -0.13588,0.05332 -0.2064,0.05332z"></path></g><g fill="#472b29"><path d="M59.78032,113.13644c-2.17064,0 -4.8848,-0.11008 -7.05716,-1.33644c-0.2064,-0.11696 -0.28036,-0.38012 -0.1634,-0.58652c0.11524,-0.20812 0.3784,-0.27692 0.58652,-0.1634c2.22224,1.25388 5.1944,1.2384 7.35644,1.22292l5.71212,-0.043c0,0 0.00172,0 0.00344,0c0.23564,0 0.42828,0.1892 0.43,0.42656c0.00172,0.23736 -0.1892,0.43172 -0.42656,0.43344l-5.71384,0.043c-0.23392,0.00172 -0.47644,0.00344 -0.72756,0.00344z"></path></g><g fill="#472b29"><path d="M69.66,113.13644c-0.23736,0 -0.42828,-0.19092 -0.43,-0.42828c-0.00172,-0.23736 0.1892,-0.43 0.42828,-0.43172l8.6,-0.04644h0.00172c0.23736,0 0.42828,0.19092 0.43,0.42828c0.00172,0.23736 -0.1892,0.43 -0.42828,0.43172l-8.6,0.04644z"></path></g><g fill="#472b29"><path d="M77.51524,61.87012c-0.06536,0 -0.13244,-0.01548 -0.19436,-0.04644c-0.21328,-0.10836 -0.29756,-0.36636 -0.1892,-0.57792l2.69696,-5.31308c1.02684,-2.01584 2.43208,-4.77472 4.75752,-6.29864c0.19608,-0.129 0.4644,-0.0774 0.59512,0.12384c0.13072,0.1978 0.07396,0.46612 -0.12384,0.59512c-2.13452,1.39836 -3.47956,4.042 -4.4634,5.97184l-2.69524,5.31136c-0.07568,0.14792 -0.22704,0.23392 -0.38356,0.23392z"></path></g><g fill="#472b29"><path d="M72.47908,71.6122c-0.06708,0 -0.13244,-0.01548 -0.19436,-0.04644c-0.21156,-0.10836 -0.29584,-0.36636 -0.18748,-0.57792l3.55524,-6.98148c0.10836,-0.21328 0.3698,-0.29584 0.57792,-0.18748c0.21156,0.10836 0.29584,0.36636 0.18748,0.57792l-3.55524,6.98148c-0.0774,0.14792 -0.22876,0.23392 -0.38356,0.23392z"></path></g><g><path d="M141.34616,117.45364c3.23876,0 6.04924,0 6.0888,0c3.6292,0 6.57212,-2.87928 6.57212,-6.43108c0,-3.09944 -2.23944,-5.6846 -5.2202,-6.2952c0.0344,-0.27176 0.05848,-0.54524 0.05848,-0.8256c0,-3.67908 -3.04784,-6.66156 -6.80604,-6.66156c-2.2188,0 -4.18476,1.04404 -5.4266,2.65396c-0.3182,-4.09532 -4.05576,-7.25496 -8.428,-6.73036c-3.19748,0.38356 -5.84284,2.80188 -6.43108,5.90132c-0.1892,0.99416 -0.16856,1.95908 0.01892,2.8638c-0.85656,-0.903 -2.07776,-1.47232 -3.43656,-1.47232c-2.48712,0 -4.51844,1.89544 -4.6784,4.28968c-1.13004,-0.24424 -2.35812,-0.22876 -3.65156,0.24596c-2.47336,0.90816 -4.23464,3.18716 -4.33784,5.77232c-0.1462,3.66876 2.85004,6.68908 6.56696,6.68908c0.28208,0 1.27452,0 1.50328,0h13.64648M130.20572,117.45364h0.6192" fill="#fdfcef"></path><path d="M147.43496,118.31536h-6.0888c-0.47472,0 -0.86,-0.38528 -0.86,-0.86c0,-0.47472 0.38528,-0.86 0.86,-0.86h6.0888c3.14932,0 5.71212,-2.49916 5.71212,-5.57108c0,-2.62128 -1.90576,-4.91576 -4.53392,-5.4524c-0.44032,-0.09116 -0.73788,-0.50568 -0.68112,-0.95288c0.03096,-0.23564 0.0516,-0.473 0.0516,-0.71724c0,-3.1992 -2.66772,-5.80156 -5.94604,-5.80156c-1.87824,0 -3.60856,0.84452 -4.7472,2.32028c-0.21672,0.28208 -0.58652,0.39732 -0.92708,0.29928c-0.34056,-0.1032 -0.58308,-0.40248 -0.6106,-0.7568c-0.13588,-1.7544 -0.9718,-3.34368 -2.35468,-4.47888c-1.42588,-1.1696 -3.2422,-1.68388 -5.11356,-1.46716c-2.83112,0.33884 -5.17032,2.48024 -5.68804,5.20644c-0.16168,0.8514 -0.15652,1.7028 0.01548,2.53184c0.0774,0.37668 -0.1032,0.75852 -0.44376,0.9374c-0.33884,0.17544 -0.7568,0.10836 -1.02168,-0.172c-0.73616,-0.77572 -1.73548,-1.204 -2.8122,-1.204c-2.01068,0 -3.6894,1.53252 -3.82012,3.48644c-0.0172,0.25112 -0.14104,0.47816 -0.34056,0.62952c-0.19952,0.14964 -0.45408,0.2064 -0.69832,0.15308c-1.09908,-0.23736 -2.13796,-0.16856 -3.17512,0.215c-2.17064,0.79636 -3.68768,2.80532 -3.7754,4.9966c-0.0602,1.50672 0.48676,2.93948 1.5394,4.03512c1.0922,1.1352 2.57312,1.76128 4.16756,1.76128h15.14804c0.47472,0 0.86,0.38528 0.86,0.86c0,0.47472 -0.38528,0.86 -0.86,0.86h-15.14804c-2.0382,0 -4.00932,-0.8342 -5.40768,-2.28932c-1.38116,-1.43792 -2.09668,-3.31788 -2.01756,-5.29416c0.11524,-2.881 2.08464,-5.51088 4.90028,-6.54632c1.0492,-0.387 2.1328,-0.52288 3.2336,-0.41968c0.59168,-2.40112 2.80188,-4.16928 5.3922,-4.16928c0.84796,0 1.68044,0.19436 2.43208,0.55556c0.01548,-0.41624 0.06364,-0.83248 0.14276,-1.25044c0.65532,-3.45548 3.60512,-6.1662 7.1724,-6.59276c2.3478,-0.28724 4.6182,0.37496 6.40872,1.84212c1.28656,1.05436 2.19816,2.42348 2.65912,3.95944c1.36052,-1.11456 3.07192,-1.73204 4.88824,-1.73204c4.22776,0 7.66604,3.37464 7.66604,7.52156c0,0.05848 0,0.11696 -0.00172,0.17716c3.03408,0.9546 5.16516,3.76336 5.16516,6.94536c0.00172,4.02308 -3.33164,7.29452 -7.4304,7.29452zM130.82492,118.31536h-0.6192c-0.47472,0 -0.86,-0.38528 -0.86,-0.86c0,-0.47472 0.38528,-0.86 0.86,-0.86h0.6192c0.47472,0 0.86,0.38528 0.86,0.86c0,0.47472 -0.38528,0.86 -0.86,0.86z" fill="#472b29"></path><g fill="#472b29"><path d="M144.49892,108.33248c-0.03096,0 -0.06192,-0.00344 -0.0946,-0.01032c-0.2322,-0.0516 -0.3784,-0.28208 -0.32508,-0.51428c0.06364,-0.28208 0.16168,-0.559 0.2924,-0.82388c1.03888,-2.10528 3.90784,-2.88444 6.40184,-1.73204c0.215,0.09976 0.3096,0.35432 0.20984,0.56932c-0.09976,0.21672 -0.35604,0.30788 -0.57104,0.20984c-2.06572,-0.95632 -4.43244,-0.35776 -5.26836,1.33128c-0.09976,0.20296 -0.17544,0.41624 -0.2236,0.63124c-0.04644,0.20296 -0.2236,0.33884 -0.4214,0.33884z"></path></g><g fill="#472b29"><path d="M135.62544,118.31536h-1.90404c-0.47472,0 -0.86,-0.38528 -0.86,-0.86c0,-0.47472 0.38528,-0.86 0.86,-0.86h1.90404c0.47472,0 0.86,0.38528 0.86,0.86c0,0.47472 -0.38356,0.86 -0.86,0.86z"></path></g></g></g></g></g></svg>
